<svg width="48" height="48" viewBox="0 0 48 48" fill="none" xmlns="http://www.w3.org/2000/svg">
<g id="SchafIcon">
<path id="Vector" d="M23.7356 0H24.3203C24.648 0.21398 24.9087 0.365644 24.9954 0.773817C25.0071 0.830119 25.0174 0.886711 25.0264 0.943533C25.5714 1.05987 26.4138 1.2959 26.9197 1.36333C27.1312 1.08556 27.2472 0.920161 27.6276 0.863105C28.3994 0.747319 29.6227 1.67922 30.2044 2.11113C30.9338 2.65276 31.8526 3.62721 32.3527 4.38742C32.8797 4.23241 33.4941 4.0274 34.0237 3.92561C35.7053 3.61211 37.4435 3.89093 38.9426 4.71464C40.6842 5.66363 41.9749 7.26853 42.5282 9.17306C42.8678 10.3449 42.8443 11.2856 42.7392 12.4761C44.6278 13.5696 45.932 15.061 46.4986 17.2063C47.0203 19.1468 46.7526 21.2148 45.7544 22.9587C45.4225 23.5286 45.0783 23.8857 44.776 24.3655C45.1093 27.4839 44.3647 30.1455 41.6113 32.0177C41.3283 32.2102 40.9414 32.3963 40.7201 32.6555C40.4525 33.1932 40.5302 33.9346 40.3203 34.5073C39.3886 37.452 36.8847 39.5074 33.8036 39.8285C33.754 39.8332 33.7043 39.8363 33.6545 39.8378L33.6539 43.954C33.655 44.994 33.8485 46.576 33.1095 47.3808C32.8215 47.6944 32.4418 47.7933 32.1109 48H29.5428C29.2636 47.8514 28.7665 47.6053 28.5594 47.3906C27.8592 46.6662 28.0181 45.2768 28.0202 44.3325C28.0266 43.2588 28.0257 42.1852 28.0174 41.1116C27.7297 41.2215 27.4395 41.3248 27.147 41.4213C24.9789 42.1368 22.1251 42.1171 20.0762 41.0856C20.0164 42.8259 20.1932 44.8532 19.9493 46.582C19.8364 47.3817 19.1271 47.6452 18.5134 48H15.9528C15.5259 47.7741 14.8538 47.438 14.6676 46.9941C14.3231 46.1718 14.4323 44.9005 14.4328 44.0215L14.4377 39.846C11.3281 39.567 8.74737 37.5815 7.78062 34.5922C7.57193 33.947 7.60718 33.1843 7.37079 32.6465C7.29429 32.4725 6.34568 31.99 6.13545 31.8181C5.76457 31.5148 5.4199 31.205 5.08891 30.8412C3.8863 29.5154 3.21272 27.7939 3.19622 26.0039C3.18775 25.4386 3.2589 24.8795 3.28645 24.3117C2.81364 23.7344 2.44895 23.253 2.11259 22.5828C1.215 20.7619 1.07529 18.6596 1.72401 16.736C2.31909 14.9547 3.62541 13.3438 5.3141 12.498C5.23929 11.1159 5.20877 10.1436 5.67134 8.80411C6.31371 6.94364 7.66601 5.4128 9.43301 4.54578C11.6055 3.49999 13.5126 3.64642 15.7081 4.40973C16.7064 3.00448 17.8938 1.86268 19.4436 1.07887C20.2929 0.649331 20.6566 0.706945 21.223 1.39702C21.5688 1.22462 22.6779 1.0168 23.0812 1.00828C23.1236 0.450836 23.3036 0.291027 23.7356 0Z" fill="white"/>
<path id="Vector_2" d="M30.6949 39.416C30.985 39.4623 31.4145 39.6247 31.7792 39.6885L31.7737 46.1121L30.9727 46.1172L29.9085 46.1134C29.8846 44.1078 29.9065 42.0516 29.9063 40.0422L30.6949 39.416Z" fill="#DADADA"/>
<path id="Vector_3" d="M17.3274 39.4305C17.4726 39.4346 18.0159 39.9102 18.1631 40.0307C18.1989 40.6559 18.1749 41.4836 18.1751 42.1327L18.1712 46.1136L17.1914 46.1178L16.3191 46.1109C16.2771 44.0207 16.3117 41.8033 16.306 39.7014L17.3274 39.4305Z" fill="#DADADA"/>
<path id="Vector_4" d="M14.9696 14.0164C14.9863 14.0157 15.003 14.0151 15.0196 14.0147C15.4646 14.0022 15.6312 14.1224 15.9489 14.4253C16.2503 15.2316 15.9994 15.9196 16.8738 16.7304C17.6491 17.4494 18.746 17.601 19.696 17.1246C20.0873 16.9285 20.4843 16.3796 20.981 16.374C21.684 16.361 21.9453 17.1213 22.3865 17.5617C23.1399 18.3138 24.2377 18.4424 25.1722 17.9647C25.7923 17.6477 26.0246 17.1342 26.4791 16.6561C27.1597 15.9403 27.9039 16.8512 28.5007 17.1651C28.8202 17.3346 29.1773 17.4205 29.5388 17.4149C31.194 17.3898 31.8861 16.0847 32.0903 14.6546C32.262 13.7981 33.6503 13.8372 33.8016 14.6168C34.0598 15.9475 33.3065 17.3529 32.3625 18.2363C32.9237 18.3065 34.1208 18.74 34.76 18.8808C35.5079 19.0911 36.3222 19.1775 37.0644 19.3912C38.6086 19.8358 38.721 21.2711 37.7541 22.3526C36.3658 23.9054 34.8638 24.377 32.8826 24.5371C32.832 25.5219 32.7349 26.2634 32.49 27.22C32.2022 28.5881 31.201 30.2313 30.2773 31.2666C26.4943 35.5067 20.0004 34.877 16.9298 30.1476C15.7533 28.3356 15.3057 26.7518 15.2174 24.544C13.2043 24.3355 10.8285 23.5657 9.92138 21.4748C9.6091 20.7551 10.1355 19.63 10.9438 19.4547C12.567 19.1028 14.1268 18.6992 15.7339 18.2418C14.8013 17.3786 13.2482 14.7631 14.9696 14.0164Z" fill="black"/>
<path id="Vector_5" d="M20.7232 18.7051C20.8756 18.7153 20.8785 18.7533 20.9933 18.8675C22.6824 20.5478 25.6949 20.585 27.2753 18.6665C27.9526 19.0559 28.5849 19.226 29.3555 19.2772C30.0446 20.3104 30.4995 21.186 30.777 22.4163C31.2954 24.6603 30.9016 27.0183 29.6822 28.9722C28.5323 30.7776 27.0399 31.7219 24.9883 32.1811L24.988 30.8931C25.4839 30.5061 26.2016 30.0051 26.5191 29.4863L26.5676 28.983C25.8923 27.4994 24.8387 28.5742 24.0663 29.2438C23.666 28.9093 22.8233 28.1274 22.4054 28.2339C21.1368 28.5571 21.4485 29.7803 22.3916 30.3215C22.5414 30.4074 22.9864 30.7906 23.1052 30.8835C23.1069 31.3176 23.0987 31.7599 23.0952 32.1947C22.09 31.9502 21.3238 31.7023 20.459 31.1101C17.4448 29.048 16.4222 25.0118 17.5284 21.6248C17.8246 20.7178 18.2057 20.0516 18.7388 19.2752C19.4514 19.2705 20.1016 19.0279 20.7232 18.7051Z" fill="#DADADA"/>
<path id="Vector_6" d="M20.7925 23.033C21.3358 22.8601 21.8689 23.3845 21.9797 24.2008C22.0905 25.0172 21.7365 25.8126 21.1914 25.972C20.6526 26.1297 20.1298 25.6061 20.0203 24.7992C19.9108 23.9923 20.2555 23.2039 20.7925 23.033Z" fill="black"/>
<path id="Vector_7" d="M26.7905 23.0333C27.1438 22.9198 27.5105 23.1009 27.7497 23.5073C27.9889 23.9136 28.0632 24.482 27.9442 24.9938C27.8252 25.5056 27.5314 25.8813 27.1756 25.9765C26.6387 26.1201 26.124 25.5917 26.0189 24.7888C25.9138 23.9859 26.2571 23.2049 26.7905 23.0333Z" fill="black"/>
<path id="Vector_8" d="M31.9957 20.0746C33.42 20.4269 34.8755 20.9485 36.3493 21.1306C36.0933 21.4194 35.7818 21.6587 35.472 21.8852C34.4703 22.4467 33.8884 22.554 32.7601 22.6828C32.6428 22.1712 32.5395 21.7214 32.3825 21.2188C32.2868 20.9124 32.0511 20.3586 31.9957 20.0746Z" fill="#DADADA"/>
<path id="Vector_9" d="M16.0329 20.1238C16.0142 20.0829 15.3965 22.4213 15.3428 22.6779C14.286 22.5619 13.7034 22.4286 12.7736 21.9136C12.4094 21.6673 12.1639 21.4285 11.8496 21.1234C13.0742 20.9645 14.8234 20.4651 16.0329 20.1238Z" fill="#DADADA"/>
<path id="Union" d="M24 0C26.0224 0 27.3892 0.471373 28.209 0.928711C28.9207 1.14495 29.7542 1.7773 30.2041 2.11133C30.9335 2.65296 31.8524 3.62749 32.3525 4.3877C32.8794 4.23272 33.494 4.02759 34.0234 3.92578C35.705 3.61229 37.4433 3.89119 38.9424 4.71484C40.6839 5.6638 41.975 7.26839 42.5283 9.17285C42.8679 10.3445 42.8443 11.2853 42.7393 12.4756C44.6278 13.5691 45.9324 15.0608 46.499 17.2061C47.0207 19.1465 46.7531 21.2151 45.7549 22.959C45.423 23.5288 45.0786 23.8856 44.7764 24.3652C45.1097 27.4837 44.3647 30.1453 41.6113 32.0176C41.3283 32.21 40.9411 32.3961 40.7197 32.6553C40.4523 33.1928 40.53 33.9342 40.3203 34.5068C39.3886 37.4515 36.8847 39.507 33.8037 39.8281C33.7542 39.8329 33.7041 39.8364 33.6543 39.8379V43.9541C33.6554 44.9941 33.8483 46.5761 33.1094 47.3809C32.8215 47.6943 32.4422 47.7934 32.1113 48H29.543C29.2638 47.8514 28.7668 47.6053 28.5596 47.3906C27.8594 46.6662 28.0185 45.2764 28.0205 44.332C28.0269 43.2585 28.0258 42.1848 28.0176 41.1113C27.73 41.2212 27.4398 41.3244 27.1475 41.4209C24.9794 42.1364 22.1251 42.1174 20.0762 41.0859C20.0165 42.8261 20.1931 44.8534 19.9492 46.582C19.8363 47.3816 19.1273 47.6452 18.5137 48H15.9531C15.5262 47.7741 14.8543 47.438 14.668 46.9941C14.3234 46.1719 14.4321 44.9005 14.4326 44.0215L14.4375 39.8457C11.328 39.5667 8.747 37.581 7.78027 34.5918C7.57177 33.9467 7.60739 33.1841 7.37109 32.6465C7.29463 32.4726 6.34658 31.9905 6.13574 31.8184C5.76487 31.5151 5.41985 31.2046 5.08887 30.8408C3.88639 29.515 3.21279 27.7938 3.19629 26.0039C3.18781 25.4386 3.25859 24.8793 3.28613 24.3115C2.81345 23.7344 2.4486 23.2531 2.1123 22.583C1.21479 20.7623 1.07508 18.6599 1.72363 16.7363C2.31872 14.9551 3.62576 13.3438 5.31445 12.498C5.23964 11.116 5.20834 10.1432 5.6709 8.80371C6.31326 6.94347 7.66587 5.41291 9.43262 4.5459C11.6051 3.5001 13.5125 3.64684 15.708 4.41016C16.6635 3.06508 17.793 1.96205 19.2471 1.18262C19.3195 1.11017 19.4037 1.04818 19.5 1C20.5 0.666668 21.0545 6.25977e-06 24 0ZM24 1.77734C22.4899 1.77735 21.5848 2.09839 20.8535 2.45898C20.6211 2.63874 20.3249 2.75159 20.0771 2.89453C19.6426 3.14527 19.2257 3.42481 18.8379 3.74121C18.389 4.10577 17.9811 4.51839 17.6221 4.97168C16.2759 6.67174 16.8999 6.96039 14.6699 6.05664C14.3859 5.94243 14.0925 5.85307 13.793 5.79004C12.7868 5.58584 11.7435 5.66389 10.7793 6.0166C8.66195 6.78577 7.22929 8.77161 7.16699 11.0234C7.15392 11.7537 7.3042 12.3803 7.33301 13.085C7.36085 13.7654 6.05441 14.1773 5.57617 14.5195C3.08436 16.3032 2.4488 19.917 4.19824 22.4326C4.56037 22.9534 5.09923 23.3472 5.32227 23.9434C5.24381 24.5137 5.14826 24.8879 5.10449 25.5117C4.95155 27.693 5.98095 29.543 7.82324 30.6904C8.21263 30.9329 8.94753 31.0935 9.19922 31.5156C9.36345 31.7913 9.34796 32.4843 9.37012 32.8242C9.45041 34.0225 9.92726 35.1603 10.7256 36.0576C12.0926 37.6189 14.2166 38.2877 16.2314 37.791C17.4952 37.4738 17.6084 36.9847 18.7051 38.0508C18.9492 38.2881 19.5161 38.6804 19.8164 38.8633C20.8809 39.508 22.0801 39.8983 23.3203 40.0029C25.3436 40.1706 27.3085 39.62 28.9492 38.4121C29.2739 38.173 30.0297 37.3836 30.3545 37.4023C31.2292 37.4528 31.7386 37.877 32.7373 37.9395C35.5943 38.1178 38.0842 36.2573 38.6387 33.4355C38.7406 32.917 38.7117 31.9156 38.8828 31.5088C38.9966 31.2383 40.0137 30.8106 40.3613 30.6055C40.6534 30.4317 40.9277 30.2299 41.1807 30.0029C42.6075 28.7248 43.3221 26.6926 42.9014 24.8213C42.682 23.8453 42.8316 23.6236 43.4863 22.916C45.8677 20.3417 45.0947 15.8923 42.0166 14.2373C41.1575 13.7754 40.5642 13.6597 40.8047 12.5176C41.1831 10.7205 40.7651 8.9124 39.5293 7.53223C38.0649 5.88471 35.7602 5.26714 33.668 5.96094C33.2005 6.12093 32.3679 6.5809 31.917 6.56055C31.3066 6.53275 30.8912 5.493 30.5293 5.05664C29.9362 4.3415 29.2686 3.6784 28.4746 3.17969C26.4903 2.18583 26.267 1.77734 24 1.77734Z" fill="black"/>
<path id="Rectangle 2" d="M15 9L18 12.0111L21 9L24 12.0111L27 9L30 12.0111L33 9V17.0369C25.9712 19.752 22.029 19.5549 15 17.0369L15 9Z" fill="#FFCC00"/>
<path id="Rectangle 2 (Stroke)" d="M27 8C27.2657 8 27.5204 8.10582 27.708 8.29395L30 10.5947L32.292 8.29395C32.5777 8.00744 33.0079 7.92167 33.3818 8.07617C33.7559 8.23077 34 8.59526 34 9V17.0371C33.9999 17.4503 33.7458 17.8208 33.3604 17.9697C29.7802 19.3526 26.906 20.0252 23.9912 19.999C21.0841 19.9729 18.2183 19.2521 14.6631 17.9785C14.2656 17.8361 14.0001 17.4593 14 17.0371V9C14 8.59525 14.2441 8.23077 14.6182 8.07617C14.9921 7.92167 15.4223 8.00744 15.708 8.29395L18 10.5947L20.292 8.29395L20.3652 8.22754C20.5433 8.08117 20.7674 8 21 8C21.2657 8 21.5204 8.10582 21.708 8.29395L24 10.5947L26.292 8.29395L26.3652 8.22754C26.5433 8.08117 26.7674 8 27 8ZM24.708 12.7168C24.5204 12.905 24.2658 13.0107 24 13.0107C23.7342 13.0107 23.4796 12.905 23.292 12.7168L21 10.416L18.708 12.7168C18.5204 12.905 18.2658 13.0107 18 13.0107C17.7342 13.0107 17.4796 12.905 17.292 12.7168L16 11.4199V16.3242C19.1498 17.415 21.5967 17.9773 24.0088 17.999C26.4182 18.0207 28.8633 17.507 32 16.3457V11.4199L30.708 12.7168C30.5204 12.905 30.2658 13.0107 30 13.0107C29.7342 13.0107 29.4796 12.905 29.292 12.7168L27 10.416L24.708 12.7168Z" fill="black"/>
</g>
</svg>
